<?xml version="1.0" standalone="no"?>
<!DOCTYPE svg PUBLIC "-//W3C//DTD SVG 20010904//EN"
 "http://www.w3.org/TR/2001/REC-SVG-20010904/DTD/svg10.dtd">
<svg version="1.0" xmlns="http://www.w3.org/2000/svg"
 width="250.000000pt" height="250.000000pt" viewBox="0 0 250.000000 250.000000"
 preserveAspectRatio="xMidYMid meet">
<metadata>
Created by potrace 1.16, written by Peter Selinger 2001-2019
</metadata>
<g transform="translate(0.000000,250.000000) scale(0.100000,-0.100000)"
fill="#000000" stroke="none">
<path d="M0 1250 l0 -1250 1250 0 1250 0 0 1250 0 1250 -1250 0 -1250 0 0
-1250z m1381 745 c14 -82 21 -166 22 -266 l1 -145 33 -2 c36 -3 83 -18 83 -27
0 -3 -5 -11 -12 -18 -9 -10 -16 -8 -34 10 -24 24 -58 30 -69 13 -5 -8 -11 -7
-21 1 -8 6 -18 9 -22 5 -4 -4 1 -12 11 -18 18 -9 18 -11 -2 -29 -25 -23 -68
-25 -93 -2 -23 21 -23 43 0 44 9 1 24 2 32 3 11 1 17 18 21 61 3 33 14 78 23
99 23 52 20 232 -9 416 -13 88 16 -31 36 -145z m402 -507 c13 -16 24 -19 48
-14 28 5 30 4 23 -17 -5 -12 -8 -32 -9 -44 0 -11 -3 -19 -6 -17 -3 1 -6 -9 -6
-24 0 -15 -7 -43 -15 -63 -15 -35 -18 -36 -66 -37 l-50 -2 -30 73 c-45 108
-45 111 7 112 49 0 53 -6 65 -88 10 -67 19 -51 22 37 3 74 3 75 -29 96 l-32
22 30 -7 c17 -3 38 -15 48 -27z m-430 -71 c11 -4 15 -12 11 -19 -6 -10 -4 -11
7 0 7 6 31 12 54 12 l40 0 -2 -72 c-2 -40 -4 -104 -6 -143 l-2 -69 -57 -12
c-48 -9 -58 -9 -63 3 -9 26 -5 43 10 43 27 0 35 36 28 131 -3 51 -9 85 -13 75
-8 -24 -14 -22 -60 28 -37 40 -38 43 -15 38 17 -3 25 0 25 9 1 11 3 10 13 -2
7 -8 20 -18 30 -22z m247 -62 c0 -44 3 -90 6 -101 7 -26 -8 -33 -58 -26 l-38
4 0 92 c0 54 -4 86 -9 77 -6 -9 -10 -10 -16 -2 -15 25 3 36 59 36 l56 0 0 -80z
m-586 44 c20 -16 26 -29 26 -59 0 -52 -16 -91 -40 -97 -24 -6 -27 -23 -5 -23
20 0 55 -80 42 -95 -5 -5 -30 -11 -54 -11 -43 -2 -45 0 -66 42 -17 36 -26 44
-48 44 -27 0 -28 -2 -31 -57 -3 -55 -4 -58 -31 -61 -15 -2 -25 -7 -23 -11 3
-4 -10 -7 -28 -7 l-33 1 -7 89 c-3 49 -6 122 -6 161 l0 73 93 15 c135 22 179
21 211 -4z m290 -35 c9 -9 16 -33 16 -57 1 -23 5 -62 10 -87 10 -53 1 -63 -47
-56 -18 3 -35 2 -37 -2 -2 -4 -37 -7 -78 -7 l-73 0 -3 42 c-4 51 17 68 96 79
41 5 52 10 50 23 -4 16 -27 19 -98 10 -32 -4 -35 -2 -38 23 -3 25 0 27 50 36
83 15 135 14 152 -4z"/>
</g>
</svg>
